<svg xmlns="http://www.w3.org/2000/svg" width="186" height="40" viewBox="0 0 186 40" fill="none">
  <path d="M178.486 29.6262C176.041 29.7505 172.892 29.2947 172.064 26.7259C171.939 26.353 171.856 25.9387 171.856 25.5243C171.856 23.7013 173.099 21.8368 175.13 21.7539C176.414 21.7539 177.616 22.9969 177.16 24.1985C176.621 25.5243 174.84 26.5187 173.389 26.5187C173.514 27.306 174.964 28.6318 176.414 28.6318C180.309 28.6318 183.209 25.7315 184.949 23.9084C185.902 22.914 185.737 23.867 185.156 25.0271C183.996 27.4303 181.345 29.4605 178.486 29.6262ZM175.793 23.1626C174.923 22.2925 173.307 24.4885 173.348 25.5243C175.088 24.7371 176.248 23.6184 175.793 23.1626Z" fill="#3D112D"/>
  <path d="M162.911 28.6737C161.875 27.4307 161.419 25.5662 161.419 23.826C161.419 23.2045 161.461 22.6245 161.585 22.0444C161.627 21.7544 162 21.6301 162.414 21.8372C162.662 22.003 162.994 22.4173 162.911 22.7073C162.745 23.9918 162.911 27.1821 163.74 28.1765C164.485 28.1351 165.811 24.9862 166.226 23.7846C165.977 22.9145 166.309 22.2516 166.681 22.003C167.179 21.7958 168.09 22.5002 167.717 23.7432V23.7846C168.463 24.0332 169.333 24.1575 170.203 24.1575C171.529 24.1575 172.896 23.9503 174.015 23.7846C175.092 23.6189 174.347 24.6133 173.435 24.9447C172.731 25.1933 171.281 25.4419 169.955 25.4419C168.919 25.4419 167.924 25.3176 167.344 24.8619C166.889 26.3949 165.811 28.5909 164.776 28.9223C164.071 29.1295 163.533 29.2952 162.911 28.6737Z" fill="#3D112D"/>
  <path d="M162.29 24.1154C161.378 24.4469 158.685 24.8198 156.158 24.6955C156.324 25.2341 156.365 25.8556 156.241 26.4771C155.868 28.5488 154.169 29.5846 152.263 29.4603C150.73 29.3774 149.694 28.093 149.487 26.9329C149.197 25.1927 150.274 23.2039 151.227 22.8724C151.31 22.8724 151.352 22.831 151.434 22.831C151.6 22.2509 151.89 21.7952 152.719 21.8366C153.838 22.0023 154.749 22.541 155.371 23.2868C156.406 23.4111 157.484 23.4525 158.437 23.4525C160.384 23.4525 162 23.2868 162.373 23.2868C163.574 23.2453 163.284 23.784 162.29 24.1154ZM152.056 23.784C151.517 24.1983 150.73 25.6485 150.937 26.8086C151.144 28.0101 151.6 28.4659 152.387 28.4245C154.21 28.3416 155.122 25.9799 154.459 24.4883C153.506 24.3226 152.719 24.074 152.139 23.7011L152.056 23.784Z" fill="#3D112D"/>
  <path d="M160.898 35.2204C161.436 35.3861 161.768 35.9248 161.809 36.3391C161.768 36.5048 161.726 36.5463 161.519 36.5877L161.353 36.3805C155.138 35.5519 140.637 35.0547 133.262 34.9304C132.019 37.2506 130.237 39.0737 127.875 39.0737C126.218 39.0737 124.312 38.245 123.856 36.5048C123.649 35.6762 124.395 33.8945 125.845 33.6874C126.798 33.5216 127.751 33.4802 128.911 33.4802C129.906 33.4802 131.024 33.5216 132.433 33.5216C132.93 31.8229 133.386 30.3727 133.676 27.721L133.552 27.7624C132.764 27.9282 131.936 28.011 131.066 28.011C130.403 28.011 129.698 27.9696 128.994 27.8453C124.146 27.0166 120.915 23.5362 120.915 19.1443C120.915 18.0256 121.122 16.9069 121.536 15.7054C121.702 15.291 122.448 14.5452 122.613 14.7524C122.82 15.001 122.572 15.4568 122.448 15.8711C122.075 16.8241 121.909 17.777 121.909 18.73C121.909 22.5004 124.644 26.0637 129.284 26.6852C130.527 26.8509 132.847 26.478 133.842 26.2294L133.925 25.3593C133.966 24.7378 133.966 24.0749 133.966 23.3705C133.966 20.8016 133.8 17.3627 133.759 11.5206C133.759 7.8745 133.552 1.12089 138.607 0.665128C144.366 0.375095 146.81 7.253 146.52 12.225C146.147 18.8129 141.921 24.945 136.121 27.0995L135.458 27.3067L135.416 27.721C135.292 29.2955 134.795 31.4914 133.925 33.5216C141.548 33.6459 155.636 34.3917 160.898 35.2204ZM135.623 25.6079C140.595 23.4948 144.283 18.1085 144.946 12.2664C144.987 11.8521 145.029 11.3963 145.029 10.9406C145.029 6.8801 143.288 1.36949 138.648 1.94955C135.54 2.28102 135.333 6.8801 135.333 10.0705V11.4792C135.333 14.7938 135.706 18.1085 135.706 21.7132C135.706 22.5418 135.665 23.3705 135.623 24.2406L135.54 25.6493L135.623 25.6079ZM127.917 37.7064C129.284 37.2506 130.568 36.1734 131.521 34.9718C130.9 34.9304 130.361 34.9304 129.823 34.9304C128 34.9304 126.674 35.0547 125.928 35.1375C124.726 35.2618 124.768 35.8833 124.851 36.3391C125.099 37.4578 126.425 38.1207 127.917 37.7064Z" fill="#3D112D"/>
  <path d="M97.6904 29.2129C97.1932 28.9643 96.8203 27.9284 97.7319 28.1356C98.1048 28.2185 98.5605 28.2599 99.0992 28.2599C100.425 28.2599 102.082 28.0527 103.16 27.8041C102.124 27.2655 100.549 26.4783 99.7206 26.0225C98.6434 25.401 97.4833 24.9867 97.3175 23.7437C96.9861 21.5477 101.502 20.2219 103.615 19.9318C104.278 19.849 105.107 20.6362 104.776 21.0505C103.242 21.5892 99.4721 22.2935 99.0163 23.3708C98.7677 23.9509 99.7207 24.3652 100.549 24.8624C102.124 25.7325 103.367 26.354 104.195 27.0169C105.107 27.8041 104.32 28.9643 103.242 29.2543C102.497 29.4615 101.419 29.5858 100.342 29.5858C99.3063 29.5858 98.3119 29.4615 97.6904 29.2129Z" fill="#3D112D"/>
  <path d="M95.664 9.86248C95.1254 9.07525 96.2855 8.49518 96.1612 8.08085C96.1612 8.08085 96.0783 8.03942 95.9955 7.95655C95.7883 7.70795 95.7469 7.33506 95.9955 7.12789C96.2026 6.96216 96.7413 7.00359 96.9484 7.33506C97.3213 7.74939 97.4871 8.24659 97.4871 8.70235C97.4871 9.36528 97.1556 9.98678 96.5755 10.1939C96.2441 10.2768 95.954 10.1939 95.664 9.86248Z" fill="#3D112D"/>
  <path d="M87.7033 29.6262C85.2587 29.7505 82.1098 29.2947 81.2811 26.7259C81.1568 26.353 81.074 25.9387 81.074 25.5243C81.074 23.7013 82.317 21.8368 84.3472 21.7539C85.6316 21.7539 86.8332 22.9969 86.3774 24.1985C85.8388 25.5243 84.0572 26.5187 82.607 26.5187C82.7313 27.306 84.1815 28.6318 85.6316 28.6318C89.5263 28.6318 92.4267 25.7315 94.1669 23.9084C95.1198 22.914 94.9541 23.867 94.374 25.0271C93.2139 27.4303 90.5622 29.4605 87.7033 29.6262ZM85.0101 23.1626C84.14 22.2925 82.5241 24.4885 82.5656 25.5243C84.3058 24.7371 85.4659 23.6184 85.0101 23.1626Z" fill="#3D112D"/>
  <path d="M72.6303 28.1766C72.0088 27.5137 71.7188 26.105 71.7188 24.7377C71.7188 23.4532 71.9674 22.1688 72.4231 21.4644C72.4646 21.2573 72.8789 21.2158 73.3761 21.3401C73.8318 21.5059 74.0804 21.8373 74.039 22.0445C73.7075 22.376 72.8789 27.0579 73.5004 27.5966C73.8318 27.8452 74.2462 27.9694 74.7019 27.9694C77.2708 27.9694 81.6627 24.6548 82.9057 23.4118C83.0714 23.2461 83.4858 23.4947 82.9886 24.4062C82.2013 25.8564 78.4309 29.1296 75.572 29.2539C74.5362 29.2953 73.4175 29.0467 72.6303 28.1766ZM73.5004 18.5641C73.0032 18.3984 72.7546 18.0255 72.9617 17.8598C73.0446 17.7355 73.3346 16.9068 73.4175 16.6996L73.5004 16.0781C73.5004 15.8295 73.9561 15.7467 74.3705 15.9124C74.9091 16.0367 75.2406 16.3682 75.1577 16.5753C75.1577 16.7411 75.1577 17.0311 75.0334 17.2797C74.9505 17.4869 74.6191 18.3984 74.4948 18.6056C74.3705 18.7713 73.8733 18.7713 73.5004 18.5641Z" fill="#3D112D"/>
  <path d="M61.5545 28.7563C61.3887 28.3834 61.3059 27.3061 61.8859 22.0855C61.8859 21.7955 62.3003 21.7955 62.7146 22.0027C63.0875 22.2098 63.3361 22.6242 63.3361 22.8728L63.2946 24.4887C64.3305 23.1628 67.3965 20.7597 69.6754 21.1326C70.6283 21.2983 71.2084 22.1684 70.9184 22.4999C70.3383 23.1628 69.7582 22.9142 69.7997 22.5827L69.8411 22.2513C67.7694 22.2098 64.3305 24.7373 63.3361 27.5962C63.2118 27.9276 63.2118 28.1762 63.046 29.3778C63.0875 29.9164 61.7202 29.3778 61.5545 28.7563Z" fill="#3D112D"/>
  <path d="M49.747 29.0469C48.3797 29.0469 46.971 27.9696 46.5152 26.5609C46.3495 26.0637 46.2666 25.525 46.2666 24.9864C46.2666 24.3235 46.3909 23.6191 46.7224 23.039C46.9295 22.6247 47.1781 22.2518 47.551 22.1275C47.8825 22.0446 48.3383 22.2518 48.6697 22.6247C49.0012 22.9562 48.9183 23.2048 48.7112 23.3291C48.1311 23.702 47.7582 24.9035 47.7582 25.9808C47.7582 26.7266 47.9239 27.3895 48.3797 27.6796C50.0785 28.8397 52.8545 24.4478 53.1859 22.9562C53.3102 22.3761 54.7604 23.1219 54.6775 23.7434C54.6361 24.0334 54.5947 24.6964 54.5947 25.4422C54.7604 26.4366 55.0504 27.431 56.2106 27.5553C59.0695 27.431 61.5554 25.235 62.9227 23.8677C63.2956 23.3705 63.2542 24.6135 62.757 25.4007C61.9283 26.6852 59.8152 28.9226 56.9564 28.7568C55.3405 28.7568 54.056 27.7624 53.476 26.3951C52.6473 27.5967 51.4457 29.0469 49.747 29.0469Z" fill="#3D112D"/>
  <path d="M30.0733 28.3834C29.2447 27.7619 28.8303 26.9747 28.8303 26.1046C28.8303 25.1931 29.2861 24.2815 30.3219 23.5772C31.4406 22.8314 32.8493 22.4585 34.2995 22.4585C35.4596 22.4585 36.6198 22.7071 37.6556 23.1628H37.697L38.4014 22.2099C38.65 21.7541 40.0587 22.6656 39.7687 23.1628C39.5615 23.7843 39.1886 24.5301 39.1057 25.3174C39.0643 26.0217 39.2715 26.8504 40.0173 27.0575C42.1304 27.4719 45.6936 25.3588 47.1852 23.7015C47.8896 22.9971 48.5111 24.0329 46.2323 26.3118C45.1964 27.3476 42.3375 28.6734 40.5973 28.2591C39.2301 27.9276 38.1942 27.1404 37.6556 25.6488C36.4955 26.6846 33.7609 28.7977 31.5649 28.7977C31.0263 28.7977 30.5291 28.6734 30.0733 28.3834ZM30.8191 27.4719C32.8079 27.2233 35.5011 25.5245 36.9512 23.9915C36.5369 23.8672 35.9568 23.7843 35.3353 23.7843C33.2637 23.7843 30.5291 24.5716 30.0733 26.4775C29.949 26.9747 30.1976 27.4304 30.8191 27.4719Z" fill="#3D112D"/>
  <path d="M40.7381 35.2204C41.2768 35.3861 41.6082 35.9248 41.6497 36.3391C41.6082 36.5048 41.5668 36.5463 41.3596 36.5877L41.1939 36.3805C34.9789 35.5519 20.4773 35.0547 13.1022 34.9304C11.8592 37.2506 10.0776 39.0737 7.7159 39.0737C6.05857 39.0737 4.15265 38.245 3.69688 36.5048C3.48972 35.6762 4.23551 33.8945 5.68567 33.6874C6.63864 33.5216 7.5916 33.4802 8.75173 33.4802C9.74613 33.4802 10.8648 33.5216 12.2736 33.5216C12.7707 31.8229 13.2265 30.3727 13.5165 27.721L13.3922 27.7624C12.605 27.9282 11.7764 28.011 10.9063 28.011C10.2433 28.011 9.53896 27.9696 8.8346 27.8453C3.98691 27.0166 0.755127 23.5362 0.755127 19.1443C0.755127 18.0256 0.962293 16.9069 1.37662 15.7054C1.54236 15.291 2.28815 14.5452 2.45389 14.7524C2.66105 15.001 2.41245 15.4568 2.28815 15.8711C1.91526 16.8241 1.74952 17.777 1.74952 18.73C1.74952 22.5004 4.48411 26.0637 9.12463 26.6852C10.3676 26.8509 12.6879 26.478 13.6823 26.2294L13.7651 25.3593C13.8066 24.7378 13.8066 24.0749 13.8066 23.3705C13.8066 20.8016 13.6408 17.3627 13.5994 11.5206C13.5994 7.8745 13.3922 1.12089 18.4471 0.665128C24.2063 0.375095 26.6509 7.253 26.3608 12.225C25.9879 18.8129 21.7617 24.945 15.9611 27.0995L15.2982 27.3067L15.2567 27.721C15.1324 29.2955 14.6352 31.4914 13.7651 33.5216C21.3888 33.6459 35.4761 34.3917 40.7381 35.2204ZM15.4639 25.6079C20.4359 23.4948 24.1234 18.1085 24.7864 12.2664C24.8278 11.8521 24.8692 11.3963 24.8692 10.9406C24.8692 6.8801 23.129 1.36949 18.4885 1.94955C15.381 2.28102 15.1739 6.8801 15.1739 10.0705V11.4792C15.1739 14.7938 15.5468 18.1085 15.5468 21.7132C15.5468 22.5418 15.5053 23.3705 15.4639 24.2406L15.381 25.6493L15.4639 25.6079ZM7.75733 37.7064C9.12463 37.2506 10.4091 36.1734 11.362 34.9718C10.7405 34.9304 10.2019 34.9304 9.66326 34.9304C7.8402 34.9304 6.51434 35.0547 5.76854 35.1375C4.56698 35.2618 4.60841 35.8833 4.69128 36.3391C4.93988 37.4578 6.26574 38.1207 7.75733 37.7064Z" fill="#3D112D"/>
</svg>