<svg width="25" height="24" viewBox="0 0 25 24" fill="none" xmlns="http://www.w3.org/2000/svg">
    <path
        d="M24.8355 9.09218C24.8242 8.78011 24.8157 8.53306 24.8157 8.24375C24.8157 8.0292 24.8185 7.81141 24.8214 7.59686V7.5546C24.8242 7.34006 24.8298 7.11576 24.8298 6.89796C24.8355 6.3681 24.8016 5.83824 24.7282 5.31488C24.7027 5.14584 24.5757 5.02557 24.426 5.02232C24.3413 5.02232 24.2425 5.02232 24.1239 5.01907C24.1239 4.97681 24.121 4.93455 24.1182 4.89229C24.1041 4.51846 24.09 4.13488 24.0815 3.7578C24.0758 3.56601 23.9375 3.41322 23.7709 3.41322H23.768C23.6269 3.41322 23.4772 3.42298 23.3219 3.43598C23.3219 3.09141 23.3275 2.76959 23.3332 2.46402C23.336 2.30799 23.2541 2.16821 23.1242 2.11945C21.9636 1.66435 20.7465 1.4303 19.521 1.4238C18.9082 1.4238 18.2954 1.48557 17.6911 1.60909C17.115 1.72937 16.5503 1.91466 16.0053 2.15846C15.4772 2.39576 14.9745 2.69807 14.5001 3.05565C14.0737 3.38072 13.6784 3.7513 13.3141 4.16738C12.8369 3.56601 12.3088 3.01989 11.7412 2.53229C11.1369 2.01218 10.4902 1.56033 9.81252 1.18C9.15739 0.809422 8.46836 0.51686 7.75957 0.308816C7.09314 0.110523 6.40977 0.00650138 5.72075 0C4.63356 0 3.55484 0.195041 2.64274 0.386832C2.49025 0.419339 2.38012 0.578623 2.39141 0.757411C2.44224 1.6611 2.47048 2.6103 2.47895 3.7643C2.3067 3.7578 2.13727 3.75455 1.96783 3.7513H1.88312C1.80123 3.7513 1.72216 3.7903 1.66568 3.85532C1.60638 3.92358 1.57532 4.01785 1.57532 4.11212C1.58379 4.56397 1.59508 5.01581 1.60638 5.46766C1.44824 5.46766 1.29858 5.47416 1.15739 5.48391C1.00207 5.50017 0.875 5.65945 0.875 5.85124C0.959716 12.1381 1.22516 17.3099 1.71651 22.1307C1.72498 22.2185 1.76169 22.2997 1.82099 22.355C1.87747 22.4103 1.95089 22.4428 2.02431 22.4428H2.03843C4.98654 22.2575 7.65509 22.1014 10.4168 22.0657C10.51 22.329 10.6343 22.576 10.7868 22.8003C10.959 23.0506 11.1652 23.2652 11.3939 23.444C11.8796 23.8113 12.4472 24.0063 13.0261 23.9998C13.7038 23.9998 14.2742 23.7593 14.7176 23.2847C14.8842 23.1027 15.0282 22.8979 15.1496 22.6736C15.2259 22.5338 15.2908 22.3843 15.3501 22.2347C18.3349 22.0787 21.6191 22.0657 24.4684 22.0624C24.4712 22.0624 24.4768 22.0624 24.4797 22.0624C24.6491 22.0559 24.7818 21.8901 24.7762 21.6951C24.7564 21.0482 24.7451 20.3721 24.7451 19.6342C24.7451 18.2851 24.779 16.9166 24.8101 15.5936V15.5871C24.8439 14.2608 24.875 12.8857 24.875 11.5302C24.875 10.2722 24.8496 9.59279 24.8326 9.09868L24.8355 9.09218ZM24.1493 21.3505C22.8305 21.3505 21.2915 21.357 19.7469 21.383C17.9904 21.4123 16.4797 21.4611 15.127 21.5358C15.0084 21.5423 14.9011 21.6301 14.8559 21.7569C14.791 21.9487 14.7119 22.1339 14.6187 22.3095C14.5255 22.4915 14.4069 22.6573 14.2714 22.8003C14.1217 22.9531 13.9495 23.0734 13.7631 23.1547C13.5259 23.2522 13.2774 23.2977 13.0261 23.2944C12.0321 23.2944 11.1877 22.6183 10.9279 21.6106C10.8912 21.4611 10.7726 21.357 10.6371 21.357H10.6314C7.84147 21.3895 5.09667 21.5456 2.2954 21.7211C1.83511 17.1051 1.58097 12.1608 1.49625 6.18931C1.54143 6.18931 1.58944 6.18931 1.63744 6.18931C1.75604 9.72281 2.00454 13.2661 2.24457 16.7118V16.7346C2.32647 17.8788 2.40836 19.0588 2.4846 20.2258C2.49025 20.3201 2.52978 20.4078 2.59191 20.4696C2.64839 20.5249 2.71898 20.5541 2.7924 20.5541C2.80087 20.5541 2.80935 20.5541 2.81782 20.5541C3.52096 20.4891 4.24387 20.4566 4.96395 20.4566C7.64662 20.4566 10.4761 20.9052 13.3706 21.7861C13.396 21.7926 13.4214 21.7991 13.4497 21.7991C13.5033 21.7991 13.5541 21.7829 13.6021 21.7536C15.7172 20.3721 18.2728 19.7024 21.4214 19.7024C22.1274 19.7024 22.8814 19.7382 23.6664 19.8065C23.6749 19.8065 23.6833 19.8065 23.6918 19.8065C23.6918 19.8065 23.6975 19.8065 23.7003 19.8065C23.8697 19.7999 24.0053 19.6374 23.9996 19.4424C23.9827 18.7857 23.9742 18.1161 23.9742 17.3944C23.9742 15.6163 24.0222 13.8057 24.0702 12.0503V12.0341C24.1182 10.2787 24.1662 8.46155 24.1662 6.68017C24.1662 6.37135 24.1606 6.05604 24.1493 5.74072C24.1521 5.74072 24.1549 5.74072 24.1577 5.74072C24.1973 6.12755 24.2142 6.51763 24.2114 6.90772C24.2114 7.11576 24.2086 7.32705 24.2057 7.5351V7.57411C24.2029 7.79515 24.1973 8.02595 24.1973 8.2535C24.1973 8.55582 24.2057 8.80937 24.217 9.13119C24.2368 9.64805 24.2594 10.2884 24.2594 11.5334C24.2594 12.8857 24.2255 14.2543 24.1945 15.5773V15.5838C24.1606 16.9101 24.1295 18.2819 24.1295 19.6374C24.1295 20.2518 24.1351 20.8142 24.1493 21.357V21.3505ZM12.851 4.63548C12.8651 5.07108 12.9272 7.27179 12.9894 10.1064C13.0769 14.03 13.1221 17.4009 13.1221 19.8617C13.1221 20.125 13.1221 20.3916 13.1221 20.6614C11.1369 19.3644 8.66321 18.7077 5.75746 18.7077C5.10797 18.7077 4.43307 18.7402 3.74404 18.8085C3.64238 17.5115 3.54073 16.5265 3.44754 15.6521C3.24422 13.7082 3.08326 12.1738 3.08326 8.61433C3.08326 7.96419 3.08891 7.3043 3.09173 6.66716V6.62166C3.09738 6.00728 3.1002 5.30838 3.1002 4.63223C3.1002 4.4697 3.1002 4.31367 3.1002 4.16088C3.1002 4.16088 3.1002 4.15763 3.1002 4.15438C3.1002 4.14788 3.1002 4.14463 3.1002 4.13813C3.09456 2.93212 3.07196 1.95366 3.02678 1.03047C3.78923 0.874436 4.76346 0.70865 5.72357 0.70865C6.38153 0.715152 7.03384 0.815923 7.66921 1.01096C8.34976 1.21901 9.01055 1.50507 9.64027 1.86915C10.2926 2.24298 10.911 2.68832 11.4899 3.20193C11.9784 3.63102 12.4331 4.11212 12.8482 4.63223L12.851 4.63548ZM2.84041 15.7333V15.7496C2.94207 16.6955 3.0522 17.7683 3.16233 19.2213C3.17645 19.4034 3.30917 19.5464 3.46731 19.5464C3.47578 19.5464 3.48707 19.5464 3.49837 19.5464C4.27211 19.4619 5.03455 19.4196 5.76028 19.4196C7.92336 19.4196 9.82947 19.7934 11.456 20.5346C9.23081 20.008 7.05361 19.7414 4.96395 19.7414C4.33141 19.7414 3.69604 19.7674 3.07479 19.8162C3.00419 18.737 2.92512 17.6317 2.85735 16.6533C2.8037 15.8764 2.74722 15.0962 2.69357 14.3095C2.73875 14.7841 2.78675 15.249 2.83758 15.7398L2.84041 15.7333ZM23.5506 6.66716C23.5506 8.43879 23.5026 10.2494 23.4546 11.9983C23.4066 13.7602 23.3586 15.5806 23.3586 17.3782C23.3586 17.9666 23.3642 18.5192 23.3755 19.0555C22.6978 19.0035 22.0427 18.9775 21.4242 18.9775C19.1821 18.9775 17.2252 19.3123 15.4998 19.9885C17.0388 19.0458 18.9788 18.5842 21.3706 18.5842C21.8394 18.5842 22.3392 18.6037 22.8559 18.6395C22.8559 18.6395 22.8757 18.6395 22.8842 18.6395C23.0536 18.633 23.1863 18.4672 23.1807 18.2721C23.144 17.2092 23.127 16.2242 23.127 15.2587C23.127 13.0548 23.2033 11.878 23.2682 10.8411C23.3247 9.95686 23.3784 9.12469 23.3784 7.82116C23.3784 7.10601 23.3642 6.3811 23.3501 5.67896C23.3416 5.1751 23.3303 4.66149 23.3247 4.14788C23.3755 4.14463 23.4264 4.13813 23.4772 4.13488C23.4857 4.39493 23.4941 4.65824 23.5054 4.91179V4.92154C23.528 5.49692 23.5506 6.09504 23.5506 6.66391V6.66716ZM22.7091 3.82931C22.7091 3.82931 22.7091 3.84232 22.7091 3.84882C22.7119 4.47295 22.7232 5.09383 22.7345 5.69521V5.71471C22.7486 6.40711 22.7628 7.11901 22.7628 7.82116C22.7628 9.09868 22.7091 9.91785 22.6554 10.789C22.5877 11.8423 22.5114 13.032 22.5114 15.262C22.5114 16.1169 22.5255 16.9849 22.5538 17.9113C22.1443 17.8885 21.749 17.8788 21.3706 17.8788C20.5375 17.8755 19.7045 17.9373 18.8771 18.0673C18.1429 18.1811 17.42 18.3729 16.714 18.633C16.0702 18.8735 15.4518 19.1921 14.8701 19.5854C14.4719 19.8552 14.0935 20.164 13.7433 20.5086C13.7433 20.2941 13.7433 20.0763 13.7433 19.8585C13.7433 14.5436 13.5344 6.90447 13.4807 4.98981C13.5033 4.97356 13.5231 4.95405 13.54 4.93455C14.9745 3.13041 17.1009 2.13895 19.5266 2.13895C20.6081 2.1422 21.684 2.33725 22.7176 2.71433C22.7119 2.98088 22.7091 3.25719 22.7091 3.56276C22.7091 3.65378 22.7091 3.74479 22.7091 3.83581V3.82931ZM2.49025 4.62898C2.49025 5.30513 2.4846 6.00077 2.48178 6.6119V6.65416C2.47613 7.29455 2.47331 7.95444 2.47331 8.60783C2.47331 9.80733 2.49025 10.7793 2.52414 11.618C2.37729 9.24171 2.25869 6.8492 2.21069 4.46645C2.30105 4.46645 2.39706 4.4697 2.4959 4.47295C2.4959 4.52496 2.4959 4.57372 2.4959 4.62573L2.49025 4.62898Z"
        fill="none" />
    <path
        d="M4.35965 7.7984C4.40483 7.7984 4.45001 7.7854 4.49237 7.76265C4.59685 7.70088 4.71263 7.66188 4.83123 7.65538C4.87076 7.65538 4.9103 7.66513 4.94983 7.67488C5.07126 7.71064 5.19551 7.72689 5.31976 7.72689H5.348C5.49201 7.72689 5.63885 7.71064 5.78287 7.69113H5.80829C5.92406 7.66838 6.04267 7.65863 6.16127 7.65538H6.18386C6.33352 7.66513 6.48037 7.70088 6.61873 7.76265C6.65262 7.77565 6.68651 7.7854 6.72039 7.78865C6.73734 7.78865 6.75146 7.78865 6.7684 7.78865C7.12138 7.74639 7.47719 7.72689 7.83017 7.73014C7.87253 7.73014 7.91206 7.73014 7.95442 7.73014C8.43448 7.73664 8.92018 7.7724 9.39177 7.80816C9.86618 7.84391 10.3575 7.87967 10.8432 7.88617C10.8912 7.88617 10.9421 7.88942 10.9929 7.89267C11.055 7.89267 11.1171 7.89918 11.1849 7.89918H11.216C11.36 7.89918 11.5012 7.88292 11.6396 7.84066C11.8005 7.78865 11.8937 7.59686 11.8485 7.41157C11.8033 7.22628 11.6367 7.11901 11.4758 7.17102C11.3854 7.19703 11.2922 7.20678 11.199 7.20353H11.1877C11.1313 7.20353 11.0748 7.20028 11.0211 7.19703H11.0127C10.9562 7.19378 10.9025 7.19053 10.8461 7.19053C10.3745 7.18402 9.89441 7.14827 9.42848 7.11251C8.94842 7.07675 8.45425 7.04099 7.96007 7.03449C7.91489 7.03449 7.86971 7.03449 7.82452 7.03449C7.29929 7.03449 6.90959 7.0735 6.76558 7.08975C6.5792 7.01499 6.38435 6.97273 6.18951 6.96623H6.16127C6.01443 6.96623 5.87041 6.98248 5.72639 7.00524H5.71792C5.59367 7.02474 5.4666 7.03774 5.33953 7.04099H5.32541C5.24351 7.04099 5.16445 7.03124 5.08538 7.00849C5.00349 6.98573 4.92159 6.97273 4.83688 6.96948H4.83123C4.62226 6.97273 4.41612 7.03449 4.22692 7.14502C4.12244 7.20353 4.05749 7.3238 4.05749 7.45708C4.05749 7.64887 4.19304 7.80491 4.35965 7.80491V7.7984Z"
        fill="none" />
    <path
        d="M11.8033 8.45179C10.6399 8.4843 8.54178 8.4908 7.3953 8.4908C6.5792 8.4908 5.96642 8.4908 5.90147 8.48755C5.7151 8.48755 5.53155 8.46805 5.33388 8.45179C5.12774 8.43229 4.91595 8.41604 4.69851 8.41279C4.67592 8.41279 4.65615 8.41279 4.63356 8.41279C4.55449 8.41279 4.48107 8.41279 4.40483 8.41929C4.24387 8.42904 4.11962 8.58182 4.11962 8.76386C4.11962 8.95565 4.25234 9.11168 4.42177 9.11493C4.42742 9.11493 4.43307 9.11493 4.44154 9.11493C4.50366 9.11168 4.57144 9.10843 4.64486 9.10843H4.69286C4.89336 9.10843 5.09667 9.12794 5.29152 9.14744H5.29434C5.49201 9.16369 5.69533 9.1832 5.89865 9.18645C5.96642 9.18645 6.58485 9.1897 7.39812 9.1897C8.54743 9.1897 10.654 9.1832 11.8231 9.15069C11.9897 9.14419 12.1224 8.98491 12.1168 8.79312C12.1168 8.7021 12.0801 8.61433 12.0208 8.54931C11.9643 8.48755 11.8881 8.45179 11.809 8.45179H11.8033Z"
        fill="none" />
    <path
        d="M4.3427 10.4997C4.4839 10.477 4.62509 10.464 4.76911 10.4672C4.97242 10.4672 5.17292 10.4932 5.38471 10.516C5.60214 10.542 5.82805 10.5647 6.05961 10.568C6.0822 10.568 6.10479 10.568 6.12738 10.568C6.45213 10.568 6.75428 10.5355 7.07338 10.503H7.0762C7.43201 10.4672 7.83864 10.425 8.33847 10.425C8.37518 10.425 8.41189 10.425 8.44577 10.425C8.93713 10.4315 9.43695 10.4737 9.92265 10.5127C10.4168 10.5517 10.9279 10.594 11.4419 10.6005C11.5012 10.6005 11.5464 10.6005 11.5887 10.6005C11.6396 10.6005 11.6932 10.6005 11.7469 10.6005C11.8259 10.6005 11.9022 10.5615 11.9587 10.4965C12.0744 10.3599 12.0744 10.1389 11.9558 10.0056C11.8994 9.94061 11.8231 9.90485 11.7412 9.90485C11.6932 9.90485 11.6424 9.90485 11.5916 9.90485C11.5464 9.90485 11.4984 9.90485 11.4504 9.90485C10.959 9.89835 10.4564 9.85934 9.97348 9.81708H9.96784C9.47648 9.77808 8.96536 9.73582 8.45707 9.72931C8.41471 9.72931 8.37518 9.72931 8.33282 9.72931C7.81888 9.72931 7.39812 9.77157 7.0282 9.81058H7.01408C6.71192 9.84309 6.42671 9.87234 6.13303 9.87234C6.11044 9.87234 6.09067 9.87234 6.06808 9.87234C5.86194 9.87234 5.65015 9.84634 5.44683 9.82358H5.44118C5.22657 9.79758 5.00349 9.77482 4.77475 9.77157H4.72957C4.56861 9.77157 4.40765 9.78458 4.24951 9.81058C4.08573 9.83984 3.97278 10.0186 3.99819 10.2072C4.02361 10.3957 4.17892 10.5257 4.3427 10.4965V10.4997Z"
        fill="none" />
    <path
        d="M12.0886 11.5952C11.617 11.5887 11.1397 11.566 10.6823 11.5432H10.6794C10.2192 11.5204 9.74475 11.4977 9.27317 11.4912C9.17998 11.4912 9.08679 11.4912 8.99925 11.4912C8.53896 11.4879 8.07867 11.5107 7.62121 11.566C7.42354 11.592 7.22587 11.605 7.02537 11.605H6.97737C6.63285 11.6017 6.27705 11.5562 5.93536 11.5139C5.57955 11.4684 5.20963 11.4229 4.83688 11.4197C4.81429 11.4197 4.78887 11.4197 4.76628 11.4197C4.58273 11.4197 4.39918 11.4294 4.21845 11.4554C4.05184 11.4782 3.93324 11.6505 3.95301 11.8423C3.97278 12.0341 4.12244 12.1706 4.28905 12.1478C4.45283 12.1251 4.61662 12.1153 4.78322 12.1186H4.83123C5.17574 12.1218 5.53155 12.1673 5.87324 12.2096C6.22904 12.2551 6.59897 12.3006 6.97172 12.3039C6.99148 12.3039 7.01408 12.3039 7.03384 12.3039C7.25128 12.3039 7.46589 12.2876 7.68051 12.2616C8.12385 12.2096 8.5672 12.1868 9.01337 12.1901C9.09526 12.1901 9.1828 12.1901 9.27317 12.1901C9.73345 12.1966 10.205 12.2193 10.6597 12.2421H10.6625C11.1256 12.2649 11.6057 12.2876 12.0914 12.2941C12.258 12.2941 12.3935 12.1413 12.3964 11.9495C12.3964 11.7577 12.2636 11.6017 12.097 11.5985L12.0886 11.5952Z"
        fill="none" />
    <path
        d="M12.0688 12.9898C12.0688 12.9898 12.0462 12.9898 12.0349 12.9898C11.857 13.0125 11.6791 13.0255 11.4984 13.0223H11.4362C11.0522 13.0158 10.6625 12.967 10.2841 12.9215C9.89724 12.8727 9.49907 12.824 9.10091 12.8175H9.0529C8.78181 12.811 8.51355 12.8565 8.25657 12.954H8.2481C8.15492 12.9963 8.05608 13.0158 7.95442 13.019C7.81888 13.0093 7.68898 13.0028 7.59014 13.0028C7.5619 13.0028 7.53084 13.0028 7.5026 13.0028C7.31623 13.0028 7.12703 13.0125 6.9463 13.019H6.92654C6.75146 13.0288 6.55096 13.0385 6.35894 13.0385C6.33353 13.0385 6.30811 13.0385 6.2827 13.0385C5.92689 13.0255 5.57108 12.9768 5.22092 12.8922C5.18704 12.8857 5.15597 12.8792 5.12209 12.876H5.09667C4.9583 12.8792 4.81994 12.902 4.68721 12.941L4.65615 12.9475C4.56014 12.9768 4.4613 12.993 4.36247 12.9995H4.354C4.31446 12.9995 4.27775 12.993 4.24104 12.98C4.08008 12.928 3.91348 13.0353 3.86829 13.2206C3.82311 13.4058 3.9163 13.5976 4.07726 13.6496C4.1648 13.6789 4.25799 13.6952 4.34835 13.6952H4.36529C4.50931 13.6919 4.6505 13.6692 4.78887 13.6269H4.80017C4.89618 13.5944 4.99501 13.5781 5.09385 13.5684H5.10514C5.49201 13.6659 5.88453 13.7179 6.27705 13.7309C6.30529 13.7309 6.33353 13.7309 6.35894 13.7309C6.55943 13.7309 6.7571 13.7212 6.94913 13.7114C7.12138 13.7049 7.31905 13.6952 7.50825 13.6952C7.53367 13.6952 7.55908 13.6952 7.5845 13.6952C7.67486 13.6952 7.79629 13.7017 7.92336 13.7114C7.92901 13.7114 7.9403 13.7114 7.94595 13.7114C8.10973 13.7114 8.27352 13.6789 8.43165 13.6171C8.64627 13.5391 8.87218 13.5034 9.09809 13.5099C9.46519 13.5164 9.82947 13.5619 10.2163 13.6106H10.2248C10.6173 13.6594 11.0211 13.7114 11.4306 13.7179C11.456 13.7179 11.4842 13.7179 11.5097 13.7179C11.7073 13.7179 11.9078 13.7049 12.1055 13.6789C12.258 13.6594 12.3738 13.5099 12.3738 13.3343C12.3738 13.1425 12.2382 12.9865 12.0716 12.9865L12.0688 12.9898Z"
        fill="none" />
    <path
        d="M9.43695 14.355C9.29858 14.3518 9.16021 14.3485 9.00772 14.3453C8.90324 14.3453 8.78464 14.3453 8.65192 14.3453C7.39247 14.3453 5.33105 14.4136 5.22657 14.4168C5.13621 14.4071 5.04867 14.3811 4.96395 14.342C4.82276 14.2803 4.67309 14.2413 4.52061 14.2348H4.49801C4.39071 14.2348 4.28058 14.2543 4.17609 14.29C4.02361 14.3355 3.89088 14.4396 3.79205 14.5793C3.75252 14.6411 3.72992 14.7159 3.72992 14.7906C3.72992 14.9824 3.86547 15.1385 4.03208 15.1385C4.12527 15.1385 4.21563 15.0897 4.27211 15.0019C4.3427 14.9499 4.42742 14.9239 4.50931 14.9304C4.59685 14.9402 4.68439 14.9662 4.76628 15.0019C4.91312 15.0669 5.06561 15.1027 5.22375 15.1125H5.22939C5.24916 15.1125 7.37835 15.0409 8.65756 15.0409C8.78181 15.0409 8.89477 15.0409 8.9936 15.0409C9.1348 15.0409 9.27881 15.0442 9.41436 15.0507H9.42283C9.5019 15.0507 9.58097 15.0149 9.63744 14.9499C9.6911 14.8882 9.72216 14.8036 9.72498 14.7126C9.73063 14.5208 9.59791 14.3583 9.4313 14.3518L9.43695 14.355Z"
        fill="none" />
    <path
        d="M19.8542 6.39411C19.5097 6.39411 19.1313 6.58265 18.7585 6.93697C18.3293 7.34006 18.013 7.87967 17.8521 8.4908C17.7899 8.72485 17.7504 8.9654 17.7335 9.2092C17.5527 8.96865 17.3353 8.77036 17.0896 8.63058C16.8496 8.48755 16.5841 8.41279 16.3131 8.40953C15.8443 8.40953 15.497 8.67609 15.4264 9.08568C15.336 9.6578 15.3868 10.2494 15.5704 10.789C15.7568 11.3352 16.0165 11.8455 16.3385 12.3006C16.9738 13.2238 17.7956 14.004 18.3406 14.5176C18.3914 14.5663 18.4366 14.6086 18.4818 14.6509L18.4479 14.6574L18.5383 14.7061C18.575 14.7419 18.6089 14.7744 18.6427 14.8069C18.7472 14.9337 18.8715 15.0344 19.0098 15.106C19.1002 15.158 19.199 15.1905 19.3007 15.1937C19.4588 15.2067 19.6 15.0897 19.6396 14.9142C19.6396 14.9012 19.6452 14.8849 19.6452 14.8719H19.6734L19.6452 14.8524C19.6452 14.7451 19.5944 14.6476 19.5125 14.6021C19.4447 14.5631 19.3741 14.5403 19.2979 14.5338C19.521 13.9552 19.8881 12.928 20.2128 11.8228C20.7267 10.0641 20.964 8.69234 20.9131 7.74964C20.8708 6.94022 20.4444 6.39736 19.8514 6.39736L19.8542 6.39411ZM19.8429 10.9613C19.5605 12.0471 19.2075 13.1068 18.7868 14.134C18.2192 13.5976 17.3579 12.6419 16.8891 11.982C16.186 10.9873 15.9516 9.97312 16.0307 9.45301C16.0533 9.30347 16.1013 9.1962 16.1662 9.15069C16.2538 9.09218 16.3526 9.06292 16.4542 9.06617C16.7225 9.08243 16.9795 9.2027 17.18 9.4075C17.4878 9.71956 17.5443 9.89835 17.725 10.4997C17.7815 10.685 17.8521 10.9191 17.9452 11.1986C17.9904 11.3514 18.1147 11.4554 18.2559 11.4522C18.2926 11.4522 18.3293 11.4457 18.366 11.4327L18.4281 11.4132L18.4648 11.3514C18.5185 11.2604 18.5044 11.1694 18.4705 10.9516C18.4084 10.529 18.2813 9.65455 18.5383 8.68909C18.6625 8.247 18.8771 7.84391 19.1623 7.51559C19.4249 7.21653 19.7045 7.04099 19.9135 7.04099C20.001 7.03774 20.0857 7.08 20.145 7.15802C20.2213 7.25879 20.2749 7.43433 20.2975 7.65863C20.3681 8.39328 20.21 9.53753 19.8401 10.9646L19.8429 10.9613Z"
        fill="none" />
</svg>